<svg xmlns="http://www.w3.org/2000/svg" viewBox="0 0 512 512" role="img" aria-labelledby="title">
  <title id="title">FM favicon</title>
  <path fill="#08988e" fill-rule="evenodd" d="M202.3,124.0 L194.7,119.5 L173.6,115.7 L112.3,115.7 L91.1,118.0 L70.0,124.0 L53.3,137.6 L47.3,149.0 L41.2,173.2 L38.2,214.0 L39.7,279.8 L42.7,313.9 L45.8,324.4 L77.5,310.8 L101.7,306.3 L115.3,306.3 L115.3,280.6 L118.4,277.6 L172.8,276.8 L184.2,273.8 L194.0,265.5 L198.5,254.1 L199.3,243.5 L197.0,232.9 L189.4,222.3 L178.9,217.1 L116.8,218.6 L113.1,215.5 L112.3,202.7 L113.8,196.6 L119.1,191.3 L126.7,189.1 L176.6,191.3 L193.2,188.3 L203.1,183.0 L212.9,169.4 L215.2,150.5 L213.6,140.7 Z M244.7,127.8 L237.1,142.2 L234.8,152.0 L225.0,248.1 L224.2,306.3 L226.5,319.1 L234.8,331.2 L247.7,337.3 L270.4,337.3 L281.0,333.5 L288.5,326.7 L294.6,313.1 L296.1,303.3 L295.3,256.4 L296.8,232.9 L299.1,229.9 L302.9,232.9 L321.8,284.4 L331.6,296.5 L344.5,301.8 L361.1,299.5 L372.5,291.2 L382.3,275.3 L395.2,239.0 L402.0,229.9 L405.7,248.1 L406.5,306.3 L435.2,310.8 L464.0,324.4 L469.3,322.2 L473.8,304.0 L473.8,278.3 L467.8,192.9 L461.0,146.7 L454.1,129.3 L448.1,122.5 L429.2,114.2 L416.3,114.2 L398.2,121.0 L380.8,142.2 L359.6,188.3 L351.3,198.9 L346.8,196.6 L328.6,154.3 L317.3,133.9 L304.4,121.8 L292.3,115.7 L271.9,114.2 L259.0,117.2 Z"/>
  <path fill="#e72051" fill-rule="evenodd" d="M471.5,353.9 L468.5,344.9 L454.1,332.0 L426.2,321.4 L400.4,318.4 L367.2,322.9 L305.2,344.1 L269.6,350.2 L228.0,347.9 L135.8,319.9 L105.5,319.1 L86.6,321.4 L57.1,332.8 L44.2,343.4 L40.5,352.4 L40.5,360.7 L43.5,369.1 L56.3,378.9 L70.0,378.9 L91.1,369.1 L106.3,365.3 L122.1,365.3 L141.0,369.1 L200.0,391.0 L233.3,397.0 L268.9,397.8 L320.3,388.7 L371.7,368.3 L394.4,364.5 L416.3,367.6 L445.8,379.7 L454.9,378.9 L467.8,369.8 L470.8,363.8 Z"/>
</svg>
